<svg width="702" height="98" viewBox="0 0 702 98" fill="none" xmlns="http://www.w3.org/2000/svg">
<circle cx="652.977" cy="49" r="49" fill="#7C223A"/>
<mask id="mask0_0_1" style="mask-type:alpha" maskUnits="userSpaceOnUse" x="603" y="0" width="99" height="98">
<circle cx="652.977" cy="49" r="49" fill="#C87D83"/>
</mask>
<g mask="url(#mask0_0_1)">
<path d="M656.251 60.3515C656.251 60.1769 655.989 62.7087 655.989 64.5857C655.989 66.4628 655.937 74.7567 655.413 78.3362C654.89 81.9156 656.042 88.3762 656.042 88.6381C656.042 88.9 657.141 79.8203 657.35 75.717C657.56 71.6137 657.036 65.3715 656.827 64.0182C656.827 64.0182 656.251 60.5261 656.251 60.3951V60.3515Z" fill="white"/>
<path d="M636.358 28.7036C636.463 27.8742 636.568 27.0012 636.568 26.1718C636.568 25.3424 637.196 22.8979 637.091 21.5447C636.987 20.1914 636.254 16.8302 635.835 13.8619C635.835 13.8619 633.95 20.1914 634.055 23.2034C634.16 26.1718 636.149 32.0648 636.254 32.7196C636.358 33.3744 636.254 29.533 636.358 28.7473V28.7036Z" fill="white"/>
<path d="M668.71 12.1158C668.71 11.7666 667.558 15.1278 667.14 16.7429C666.721 18.3144 667.035 18.0961 666.511 19.7113C665.988 21.3264 665.255 23.509 665.255 23.8582C665.255 24.2075 665.621 28.2671 665.621 29.0528C665.621 29.8386 665.621 29.9259 665.831 30.4061C665.988 30.8862 666.093 31.0608 666.459 31.4974C666.825 31.9339 666.668 32.0648 667.087 32.8506C667.506 33.6363 667.401 33.2871 667.82 33.9855C668.239 34.684 668.239 34.9895 668.396 35.9062C668.553 36.8229 671.642 40.0095 671.642 40.0095C671.642 40.0095 670.699 36.7356 669.966 32.9379C669.234 29.1402 669.652 27.525 669.443 24.6876C669.234 21.8939 668.71 16.7429 668.815 14.473C668.815 14.473 668.71 12.4214 668.71 12.0721V12.1158Z" fill="white"/>
<path d="M655.885 100.162C656.67 97.4122 656.513 95.7097 656.408 93.92C656.408 93.92 656.251 92.8724 656.199 92.5668C656.199 92.2612 655.518 95.3169 655.518 97.4558C655.518 99.6384 655.152 104.615 655.204 105.27C655.204 105.924 655.099 102.912 655.885 100.162Z" fill="white"/>
<path d="M706.087 86.2372V-2.94421H668.03C668.03 -2.81326 668.03 -2.72595 668.03 -2.72595C668.03 -2.72595 673.264 -2.46404 675.044 0.460657C676.824 3.3417 675.882 15.3897 675.987 21.2827C676.091 27.1758 678.499 31.7593 678.709 35.3824C678.918 39.0055 679.965 55.6807 680.122 56.2045C680.279 56.6847 681.326 62.4031 681.326 63.7127C681.326 65.0222 681.064 67.2485 680.646 67.7723C680.227 68.2962 676.615 70.2605 676.144 70.697C675.62 71.1335 675.568 70.7843 675.568 70.4788C675.568 70.1732 675.568 70.0422 675.568 70.0422C675.568 70.0422 675.201 70.1295 674.783 70.2605C674.416 70.3914 674.364 69.7803 674.678 69.1692C674.992 68.6017 675.515 68.0779 675.515 68.0779L676.144 67.3795C676.144 67.3795 675.515 67.5977 675.306 67.0739C675.097 66.5937 675.306 65.7207 675.411 65.4151C675.411 65.1095 675.934 63.1888 675.777 61.7047C675.725 60.7007 675.672 59.2165 675.672 58.2125C675.568 59.8276 675.097 63.2325 673.369 66.5937C670.961 71.3955 668.658 83.9673 667.611 89.4675C666.564 94.9676 668.029 96.4518 666.25 104.484C665.569 107.627 664.574 110.901 663.58 113.913H748.281V86.1499H706.087V86.2372Z" fill="white"/>
<path d="M643.687 99.3765C644.106 94.924 644.629 93.0469 643.164 88.2452C641.698 83.4435 637.301 69.4748 637.039 67.4231C636.829 65.9389 636.463 65.6334 636.411 65.5897C636.201 65.5897 635.887 65.5024 635.887 65.2405C635.887 64.804 635.364 57.5577 635.364 57.5577C635.364 57.5577 633.741 55.5934 633.008 54.5457C632.275 53.4544 632.589 44.724 632.537 44.4621C631.019 36.561 628.558 30.8426 627.773 24.9932C627.145 20.2351 627.878 12.3341 628.192 7.3577C628.506 2.38135 630.233 -1.37274 632.066 -2.42039C632.432 -2.63865 632.851 -2.81326 633.322 -2.94421H603.692V56.8593L557.311 -2.94421H513.547V114H557.311V55.2005L603.64 114H648.085C647.038 111.686 643.321 103.218 643.635 99.4202L643.687 99.3765Z" fill="white"/>
</g>
<path d="M43.5938 47.2109V49.6367C43.5938 53.5273 43.0664 57.0195 42.0117 60.1133C40.957 63.207 39.4688 65.8438 37.5469 68.0234C35.625 70.1797 33.3281 71.832 30.6562 72.9805C28.0078 74.1289 25.0664 74.7031 21.832 74.7031C18.6211 74.7031 15.6797 74.1289 13.0078 72.9805C10.3594 71.832 8.0625 70.1797 6.11719 68.0234C4.17188 65.8438 2.66016 63.207 1.58203 60.1133C0.527344 57.0195 0 53.5273 0 49.6367V47.2109C0 43.2969 0.527344 39.8047 1.58203 36.7344C2.63672 33.6406 4.125 31.0039 6.04688 28.8242C7.99219 26.6445 10.2891 24.9805 12.9375 23.832C15.6094 22.6836 18.5508 22.1094 21.7617 22.1094C24.9961 22.1094 27.9375 22.6836 30.5859 23.832C33.2578 24.9805 35.5547 26.6445 37.4766 28.8242C39.4219 31.0039 40.9219 33.6406 41.9766 36.7344C43.0547 39.8047 43.5938 43.2969 43.5938 47.2109ZM32.9414 49.6367V47.1406C32.9414 44.4219 32.6953 42.0312 32.2031 39.9688C31.7109 37.9062 30.9844 36.1719 30.0234 34.7656C29.0625 33.3594 27.8906 32.3047 26.5078 31.6016C25.125 30.875 23.543 30.5117 21.7617 30.5117C19.9805 30.5117 18.3984 30.875 17.0156 31.6016C15.6562 32.3047 14.4961 33.3594 13.5352 34.7656C12.5977 36.1719 11.8828 37.9062 11.3906 39.9688C10.8984 42.0312 10.6523 44.4219 10.6523 47.1406V49.6367C10.6523 52.332 10.8984 54.7227 11.3906 56.8086C11.8828 58.8711 12.6094 60.6172 13.5703 62.0469C14.5312 63.4531 15.7031 64.5195 17.0859 65.2461C18.4688 65.9727 20.0508 66.3359 21.832 66.3359C23.6133 66.3359 25.1953 65.9727 26.5781 65.2461C27.9609 64.5195 29.1211 63.4531 30.0586 62.0469C30.9961 60.6172 31.7109 58.8711 32.2031 56.8086C32.6953 54.7227 32.9414 52.332 32.9414 49.6367ZM60.4688 44.082V74H50.3438V35.9609H59.8359L60.4688 44.082ZM58.9922 53.6445H56.25C56.25 50.832 56.6133 48.3008 57.3398 46.0508C58.0664 43.7773 59.0859 41.8438 60.3984 40.25C61.7109 38.6328 63.2695 37.4023 65.0742 36.5586C66.9023 35.6914 68.9414 35.2578 71.1914 35.2578C72.9727 35.2578 74.6016 35.5156 76.0781 36.0312C77.5547 36.5469 78.8203 37.3672 79.875 38.4922C80.9531 39.6172 81.7734 41.1055 82.3359 42.957C82.9219 44.8086 83.2148 47.0703 83.2148 49.7422V74H73.0195V49.707C73.0195 48.0195 72.7852 46.707 72.3164 45.7695C71.8477 44.832 71.1562 44.1758 70.2422 43.8008C69.3516 43.4023 68.25 43.2031 66.9375 43.2031C65.5781 43.2031 64.3945 43.4727 63.3867 44.0117C62.4023 44.5508 61.582 45.3008 60.9258 46.2617C60.293 47.1992 59.8125 48.3008 59.4844 49.5664C59.1562 50.832 58.9922 52.1914 58.9922 53.6445ZM101.602 20V74H91.4414V20H101.602ZM121.254 69.7109L131.344 35.9609H142.207L126.914 79.7305C126.586 80.6914 126.141 81.7227 125.578 82.8242C125.039 83.9258 124.301 84.9688 123.363 85.9531C122.449 86.9609 121.289 87.7812 119.883 88.4141C118.5 89.0469 116.801 89.3633 114.785 89.3633C113.824 89.3633 113.039 89.3047 112.43 89.1875C111.82 89.0703 111.094 88.9062 110.25 88.6953V81.2773C110.508 81.2773 110.777 81.2773 111.059 81.2773C111.34 81.3008 111.609 81.3125 111.867 81.3125C113.203 81.3125 114.293 81.1602 115.137 80.8555C115.98 80.5508 116.66 80.082 117.176 79.4492C117.691 78.8398 118.102 78.043 118.406 77.0586L121.254 69.7109ZM117.035 35.9609L125.297 63.5234L126.738 74.2461L119.848 74.9844L106.172 35.9609H117.035ZM199.16 65.7734V74H171.914V65.7734H199.16ZM175.359 22.8125V74H164.812V22.8125H175.359ZM195.609 43.6602V51.6758H171.914V43.6602H195.609ZM199.125 22.8125V31.0742H171.914V22.8125H199.125ZM225.246 63.4883C225.246 62.7617 225.035 62.1055 224.613 61.5195C224.191 60.9336 223.406 60.3945 222.258 59.9023C221.133 59.3867 219.504 58.918 217.371 58.4961C215.449 58.0742 213.656 57.5469 211.992 56.9141C210.352 56.2578 208.922 55.4727 207.703 54.5586C206.508 53.6445 205.57 52.5664 204.891 51.3242C204.211 50.0586 203.871 48.6172 203.871 47C203.871 45.4062 204.211 43.9062 204.891 42.5C205.594 41.0938 206.59 39.8516 207.879 38.7734C209.191 37.6719 210.785 36.8164 212.66 36.207C214.559 35.5742 216.691 35.2578 219.059 35.2578C222.363 35.2578 225.199 35.7852 227.566 36.8398C229.957 37.8945 231.785 39.3477 233.051 41.1992C234.34 43.0273 234.984 45.1133 234.984 47.457H224.859C224.859 46.4727 224.648 45.5938 224.227 44.8203C223.828 44.0234 223.195 43.4023 222.328 42.957C221.484 42.4883 220.383 42.2539 219.023 42.2539C217.898 42.2539 216.926 42.4531 216.105 42.8516C215.285 43.2266 214.652 43.7422 214.207 44.3984C213.785 45.0312 213.574 45.7344 213.574 46.5078C213.574 47.0938 213.691 47.6211 213.926 48.0898C214.184 48.5352 214.594 48.9453 215.156 49.3203C215.719 49.6953 216.445 50.0469 217.336 50.375C218.25 50.6797 219.375 50.9609 220.711 51.2188C223.453 51.7812 225.902 52.5195 228.059 53.4336C230.215 54.3242 231.926 55.543 233.191 57.0898C234.457 58.6133 235.09 60.6172 235.09 63.1016C235.09 64.7891 234.715 66.3359 233.965 67.7422C233.215 69.1484 232.137 70.3789 230.73 71.4336C229.324 72.4648 227.637 73.2734 225.668 73.8594C223.723 74.4219 221.531 74.7031 219.094 74.7031C215.555 74.7031 212.555 74.0703 210.094 72.8047C207.656 71.5391 205.805 69.9336 204.539 67.9883C203.297 66.0195 202.676 64.0039 202.676 61.9414H212.273C212.32 63.3242 212.672 64.4375 213.328 65.2812C214.008 66.125 214.863 66.7344 215.895 67.1094C216.949 67.4844 218.086 67.6719 219.305 67.6719C220.617 67.6719 221.707 67.4961 222.574 67.1445C223.441 66.7695 224.098 66.2773 224.543 65.668C225.012 65.0352 225.246 64.3086 225.246 63.4883ZM257.379 66.793C258.621 66.793 259.723 66.5586 260.684 66.0898C261.645 65.5977 262.395 64.918 262.934 64.0508C263.496 63.1602 263.789 62.1172 263.812 60.9219H273.34C273.316 63.5938 272.602 65.9727 271.195 68.0586C269.789 70.1211 267.902 71.75 265.535 72.9453C263.168 74.1172 260.52 74.7031 257.59 74.7031C254.637 74.7031 252.059 74.2109 249.855 73.2266C247.676 72.2422 245.859 70.8828 244.406 69.1484C242.953 67.3906 241.863 65.3516 241.137 63.0312C240.41 60.6875 240.047 58.1797 240.047 55.5078V54.4883C240.047 51.793 240.41 49.2852 241.137 46.9648C241.863 44.6211 242.953 42.582 244.406 40.8477C245.859 39.0898 247.676 37.7188 249.855 36.7344C252.035 35.75 254.59 35.2578 257.52 35.2578C260.637 35.2578 263.367 35.8555 265.711 37.0508C268.078 38.2461 269.93 39.957 271.266 42.1836C272.625 44.3867 273.316 47 273.34 50.0234H263.812C263.789 48.7578 263.52 47.6094 263.004 46.5781C262.512 45.5469 261.785 44.7266 260.824 44.1172C259.887 43.4844 258.727 43.168 257.344 43.168C255.867 43.168 254.66 43.4844 253.723 44.1172C252.785 44.7266 252.059 45.5703 251.543 46.6484C251.027 47.7031 250.664 48.9102 250.453 50.2695C250.266 51.6055 250.172 53.0117 250.172 54.4883V55.5078C250.172 56.9844 250.266 58.4023 250.453 59.7617C250.641 61.1211 250.992 62.3281 251.508 63.3828C252.047 64.4375 252.785 65.2695 253.723 65.8789C254.66 66.4883 255.879 66.793 257.379 66.793ZM277.594 55.3672V54.6289C277.594 51.8398 277.992 49.2734 278.789 46.9297C279.586 44.5625 280.746 42.5117 282.27 40.7773C283.793 39.043 285.668 37.6953 287.895 36.7344C290.121 35.75 292.676 35.2578 295.559 35.2578C298.441 35.2578 301.008 35.75 303.258 36.7344C305.508 37.6953 307.395 39.043 308.918 40.7773C310.465 42.5117 311.637 44.5625 312.434 46.9297C313.23 49.2734 313.629 51.8398 313.629 54.6289V55.3672C313.629 58.1328 313.23 60.6992 312.434 63.0664C311.637 65.4102 310.465 67.4609 308.918 69.2188C307.395 70.9531 305.52 72.3008 303.293 73.2617C301.066 74.2227 298.512 74.7031 295.629 74.7031C292.746 74.7031 290.18 74.2227 287.93 73.2617C285.703 72.3008 283.816 70.9531 282.27 69.2188C280.746 67.4609 279.586 65.4102 278.789 63.0664C277.992 60.6992 277.594 58.1328 277.594 55.3672ZM287.719 54.6289V55.3672C287.719 56.9609 287.859 58.4492 288.141 59.832C288.422 61.2148 288.867 62.4336 289.477 63.4883C290.109 64.5195 290.93 65.3281 291.938 65.9141C292.945 66.5 294.176 66.793 295.629 66.793C297.035 66.793 298.242 66.5 299.25 65.9141C300.258 65.3281 301.066 64.5195 301.676 63.4883C302.285 62.4336 302.73 61.2148 303.012 59.832C303.316 58.4492 303.469 56.9609 303.469 55.3672V54.6289C303.469 53.082 303.316 51.6289 303.012 50.2695C302.73 48.8867 302.273 47.668 301.641 46.6133C301.031 45.5352 300.223 44.6914 299.215 44.082C298.207 43.4727 296.988 43.168 295.559 43.168C294.129 43.168 292.91 43.4727 291.902 44.082C290.918 44.6914 290.109 45.5352 289.477 46.6133C288.867 47.668 288.422 48.8867 288.141 50.2695C287.859 51.6289 287.719 53.082 287.719 54.6289ZM329.977 44.2578V74H319.852V35.9609H329.379L329.977 44.2578ZM341.438 35.7148L341.262 45.1016C340.77 45.0312 340.172 44.9727 339.469 44.9258C338.789 44.8555 338.168 44.8203 337.605 44.8203C336.176 44.8203 334.934 45.0078 333.879 45.3828C332.848 45.7344 331.98 46.2617 331.277 46.9648C330.598 47.668 330.082 48.5234 329.73 49.5312C329.402 50.5391 329.215 51.6875 329.168 52.9766L327.129 52.3438C327.129 49.8828 327.375 47.6211 327.867 45.5586C328.359 43.4727 329.074 41.6562 330.012 40.1094C330.973 38.5625 332.145 37.3672 333.527 36.5234C334.91 35.6797 336.492 35.2578 338.273 35.2578C338.836 35.2578 339.41 35.3047 339.996 35.3984C340.582 35.4688 341.062 35.5742 341.438 35.7148ZM366.609 35.9609V43.1328H344.461V35.9609H366.609ZM349.945 26.5742H360.07V62.5391C360.07 63.6406 360.211 64.4844 360.492 65.0703C360.797 65.6562 361.242 66.0664 361.828 66.3008C362.414 66.5117 363.152 66.6172 364.043 66.6172C364.676 66.6172 365.238 66.5938 365.73 66.5469C366.246 66.4766 366.68 66.4062 367.031 66.3359L367.066 73.7891C366.199 74.0703 365.262 74.293 364.254 74.457C363.246 74.6211 362.133 74.7031 360.914 74.7031C358.688 74.7031 356.742 74.3398 355.078 73.6133C353.438 72.8633 352.172 71.668 351.281 70.0273C350.391 68.3867 349.945 66.2305 349.945 63.5586V26.5742ZM392.941 63.4883C392.941 62.7617 392.73 62.1055 392.309 61.5195C391.887 60.9336 391.102 60.3945 389.953 59.9023C388.828 59.3867 387.199 58.918 385.066 58.4961C383.145 58.0742 381.352 57.5469 379.688 56.9141C378.047 56.2578 376.617 55.4727 375.398 54.5586C374.203 53.6445 373.266 52.5664 372.586 51.3242C371.906 50.0586 371.566 48.6172 371.566 47C371.566 45.4062 371.906 43.9062 372.586 42.5C373.289 41.0938 374.285 39.8516 375.574 38.7734C376.887 37.6719 378.48 36.8164 380.355 36.207C382.254 35.5742 384.387 35.2578 386.754 35.2578C390.059 35.2578 392.895 35.7852 395.262 36.8398C397.652 37.8945 399.48 39.3477 400.746 41.1992C402.035 43.0273 402.68 45.1133 402.68 47.457H392.555C392.555 46.4727 392.344 45.5938 391.922 44.8203C391.523 44.0234 390.891 43.4023 390.023 42.957C389.18 42.4883 388.078 42.2539 386.719 42.2539C385.594 42.2539 384.621 42.4531 383.801 42.8516C382.98 43.2266 382.348 43.7422 381.902 44.3984C381.48 45.0312 381.27 45.7344 381.27 46.5078C381.27 47.0938 381.387 47.6211 381.621 48.0898C381.879 48.5352 382.289 48.9453 382.852 49.3203C383.414 49.6953 384.141 50.0469 385.031 50.375C385.945 50.6797 387.07 50.9609 388.406 51.2188C391.148 51.7812 393.598 52.5195 395.754 53.4336C397.91 54.3242 399.621 55.543 400.887 57.0898C402.152 58.6133 402.785 60.6172 402.785 63.1016C402.785 64.7891 402.41 66.3359 401.66 67.7422C400.91 69.1484 399.832 70.3789 398.426 71.4336C397.02 72.4648 395.332 73.2734 393.363 73.8594C391.418 74.4219 389.227 74.7031 386.789 74.7031C383.25 74.7031 380.25 74.0703 377.789 72.8047C375.352 71.5391 373.5 69.9336 372.234 67.9883C370.992 66.0195 370.371 64.0039 370.371 61.9414H379.969C380.016 63.3242 380.367 64.4375 381.023 65.2812C381.703 66.125 382.559 66.7344 383.59 67.1094C384.645 67.4844 385.781 67.6719 387 67.6719C388.312 67.6719 389.402 67.4961 390.27 67.1445C391.137 66.7695 391.793 66.2773 392.238 65.668C392.707 65.0352 392.941 64.3086 392.941 63.4883ZM439.137 22.8125V74H428.625V22.8125H439.137ZM458.297 44.082V74H448.172V35.9609H457.664L458.297 44.082ZM456.82 53.6445H454.078C454.078 50.832 454.441 48.3008 455.168 46.0508C455.895 43.7773 456.914 41.8438 458.227 40.25C459.539 38.6328 461.098 37.4023 462.902 36.5586C464.73 35.6914 466.77 35.2578 469.02 35.2578C470.801 35.2578 472.43 35.5156 473.906 36.0312C475.383 36.5469 476.648 37.3672 477.703 38.4922C478.781 39.6172 479.602 41.1055 480.164 42.957C480.75 44.8086 481.043 47.0703 481.043 49.7422V74H470.848V49.707C470.848 48.0195 470.613 46.707 470.145 45.7695C469.676 44.832 468.984 44.1758 468.07 43.8008C467.18 43.4023 466.078 43.2031 464.766 43.2031C463.406 43.2031 462.223 43.4727 461.215 44.0117C460.23 44.5508 459.41 45.3008 458.754 46.2617C458.121 47.1992 457.641 48.3008 457.312 49.5664C456.984 50.832 456.82 52.1914 456.82 53.6445ZM507.375 35.9609V43.1328H485.227V35.9609H507.375ZM490.711 26.5742H500.836V62.5391C500.836 63.6406 500.977 64.4844 501.258 65.0703C501.562 65.6562 502.008 66.0664 502.594 66.3008C503.18 66.5117 503.918 66.6172 504.809 66.6172C505.441 66.6172 506.004 66.5938 506.496 66.5469C507.012 66.4766 507.445 66.4062 507.797 66.3359L507.832 73.7891C506.965 74.0703 506.027 74.293 505.02 74.457C504.012 74.6211 502.898 74.7031 501.68 74.7031C499.453 74.7031 497.508 74.3398 495.844 73.6133C494.203 72.8633 492.938 71.668 492.047 70.0273C491.156 68.3867 490.711 66.2305 490.711 63.5586V26.5742ZM523.828 35.9609V74H513.668V35.9609H523.828ZM513.035 26.0469C513.035 24.5703 513.551 23.3516 514.582 22.3906C515.613 21.4297 516.996 20.9492 518.73 20.9492C520.441 20.9492 521.812 21.4297 522.844 22.3906C523.898 23.3516 524.426 24.5703 524.426 26.0469C524.426 27.5234 523.898 28.7422 522.844 29.7031C521.812 30.6641 520.441 31.1445 518.73 31.1445C516.996 31.1445 515.613 30.6641 514.582 29.7031C513.551 28.7422 513.035 27.5234 513.035 26.0469ZM542.32 43.8359V74H532.16V35.9609H541.688L542.32 43.8359ZM540.914 53.6445H538.102C538.102 50.9961 538.418 48.5586 539.051 46.332C539.707 44.082 540.656 42.1367 541.898 40.4961C543.164 38.832 544.723 37.543 546.574 36.6289C548.426 35.7148 550.57 35.2578 553.008 35.2578C554.695 35.2578 556.242 35.5156 557.648 36.0312C559.055 36.5234 560.262 37.3086 561.27 38.3867C562.301 39.4414 563.098 40.8242 563.66 42.5352C564.223 44.2227 564.504 46.25 564.504 48.6172V74H554.379V49.7422C554.379 48.0078 554.145 46.6719 553.676 45.7344C553.207 44.7969 552.539 44.1406 551.672 43.7656C550.828 43.3906 549.809 43.2031 548.613 43.2031C547.301 43.2031 546.152 43.4727 545.168 44.0117C544.207 44.5508 543.41 45.3008 542.777 46.2617C542.145 47.1992 541.676 48.3008 541.371 49.5664C541.066 50.832 540.914 52.1914 540.914 53.6445ZM563.555 52.4844L559.934 52.9414C559.934 50.457 560.238 48.1484 560.848 46.0156C561.48 43.8828 562.406 42.0078 563.625 40.3906C564.867 38.7734 566.402 37.5195 568.23 36.6289C570.059 35.7148 572.168 35.2578 574.559 35.2578C576.387 35.2578 578.051 35.5273 579.551 36.0664C581.051 36.582 582.328 37.4141 583.383 38.5625C584.461 39.6875 585.281 41.1641 585.844 42.9922C586.43 44.8203 586.723 47.0586 586.723 49.707V74H576.562V49.707C576.562 47.9492 576.328 46.6133 575.859 45.6992C575.414 44.7617 574.758 44.1172 573.891 43.7656C573.047 43.3906 572.039 43.2031 570.867 43.2031C569.648 43.2031 568.582 43.4492 567.668 43.9414C566.754 44.4102 565.992 45.0664 565.383 45.9102C564.773 46.7539 564.316 47.7383 564.012 48.8633C563.707 49.9648 563.555 51.1719 563.555 52.4844Z" fill="white"/>
</svg>
